<?xml version="1.0" encoding="UTF-8"?>
<svg width="100pt" height="100pt" version="1.1" viewBox="0 0 100 100" xmlns="http://www.w3.org/2000/svg">
 <g fill="#fff">
  <path d="m50 36.867c-7.2461 0-13.137 5.8906-13.137 13.137 0 7.2422 5.8906 13.137 13.137 13.137 7.2422 0 13.137-5.8945 13.137-13.137 0-7.2461-5.8945-13.137-13.137-13.137z"/>
  <path d="m53.461 5.7422c-1.5977-2.5547-5.3281-2.5547-6.9258 0-8.1133 12.977-27.672 45.676-27.672 59.305 0 17.191 13.941 31.133 31.133 31.133s31.133-13.941 31.133-31.133c0.003906-13.629-19.559-46.328-27.668-59.305zm-0.59375 61.434c-0.42578 0.070313-0.73047 0.44922-0.73047 0.87891v2.8711c0 0.49219 0.39844 0.89453 0.89453 0.89453h5.5547c1.1172 0 2.1133 0.81641 2.2188 1.9258 0.12109 1.2734-0.87891 2.3477-2.1289 2.3477h-5.6484c-0.49219 0-0.89453 0.39844-0.89453 0.89453v5.5547c0 1.1172-0.81641 2.1133-1.9258 2.2188-1.2734 0.12109-2.3477-0.87891-2.3477-2.1289v-5.6484c0-0.49219-0.39844-0.89453-0.89453-0.89453h-5.6484c-1.1836 0-2.1367-0.95703-2.1367-2.1367s0.95312-2.1367 2.1367-2.1367h5.6484c0.49219 0 0.89453-0.39844 0.89453-0.89453v-2.8711c0-0.42969-0.30859-0.80469-0.73438-0.87891-8.5938-1.4297-15.082-9.1758-14.504-18.297 0.54688-8.6172 7.4961-15.629 16.113-16.238 10.172-0.72266 18.676 7.3477 18.676 17.367 0 8.625-6.3008 15.801-14.543 17.172z"/>
 </g>
</svg>
