<?xml version="1.0" encoding="UTF-8"?>
<svg width="128pt" height="128pt" version="1.1" viewBox="0 0 128 128" xmlns="http://www.w3.org/2000/svg">
 <g fill="#fff">
  <path d="m64 47.188c-9.2734 0-16.816 7.5391-16.816 16.816 0 9.2695 7.5391 16.816 16.816 16.816 9.2695 0 16.816-7.5469 16.816-16.816 0-9.2773-7.5469-16.816-16.816-16.816z"/>
  <path d="m68.434 7.3477c-2.0469-3.2734-6.8164-3.2734-8.8633 0-10.387 16.613-35.418 58.465-35.418 75.91 0 22.008 17.844 39.852 39.852 39.852 22.008 0 39.852-17.844 39.852-39.852-0.003907-17.445-25.043-59.297-35.422-75.91zm-0.76562 78.637c-0.54297 0.089844-0.93359 0.57422-0.93359 1.1211v3.6758c0 0.63281 0.51172 1.1445 1.1445 1.1445h7.1094c1.4297 0 2.707 1.043 2.8398 2.4648 0.15625 1.6328-1.125 3.0078-2.7227 3.0078h-7.2305c-0.63281 0-1.1445 0.51172-1.1445 1.1445v7.1094c0 1.4297-1.043 2.707-2.4648 2.8398-1.6328 0.15625-3.0078-1.125-3.0078-2.7227v-7.2305c0-0.63281-0.51172-1.1445-1.1445-1.1445h-7.2305c-1.5156 0-2.7344-1.2266-2.7344-2.7344 0-1.5117 1.2188-2.7344 2.7344-2.7344h7.2305c0.63281 0 1.1445-0.51172 1.1445-1.1445v-3.6758c0-0.55078-0.39453-1.0312-0.9375-1.1211-11.004-1.832-19.305-11.746-18.566-23.418 0.69922-11.035 9.5977-20.008 20.629-20.793 13.02-0.92578 23.906 9.4023 23.906 22.23-0.003906 11.039-8.0703 20.227-18.621 21.98z"/>
 </g>
</svg>
